<svg xmlns="http://www.w3.org/2000/svg" viewBox="0 0 389.4 192.3" height="192.3" width="389.4"><defs><clipPath id="a"><path d="M0 1441.9V0h2920.6v1441.9z"/></clipPath></defs><g clip-path="url(#a)" transform="matrix(.13333 0 0 -.13333 0 192.3)"><path d="M2.7 280h2917.9v-6H2.7zm2413.9 98.1s-.5-3-4.9-3l-117 .7c-3.3 0-3.6 3-3.6 3s-.9 4 3.9 6.5c9.8 4.2 28.6 4.9 29.2 15.7v1.9c1.7 58 2.9 117.9.5 175.2 0 1.7.3 3.4-.2 5-2.6 8-14.3 6.6-24.5 10-1.1.5-3 1.2-3.8 2-1.8 1.8-2.4 5.9.7 7.7l2.2 1.2c21.7 8.8 42.5 17.8 60.6 36 .2.2 1.3 2 3.2 2 1.9 0 2.6-2 2.6-2.4 3.2-15.8 1.3-34.2 2.1-51.4.2 1.1 2.5 4.6 2.5 4.6s36.4 55.3 70.7 43.2c13.5-4.8 21.4-19.8 21.5-34 .1-14.9-5.9-32.7-19.1-37-8-2.5-19.3-2.2-25.3 8.3-5.7 9.8-.3 29-16.4 29-4.2 0-7.5-4-9-5.5-11.6-11.7-14.7-31.4-17.6-48-2.4-45.4 0-137.6 0-137.6l.5-7c1.6-12.2 12-14.6 12-14.6 8-3.5 30.3-.1 29.2-11.5m-182.9 159.3c8 3.1 14 9.7 16 19.7 4 19.8.3 43-13 57.7-6.7 7.6-15.4 9.1-25.6 7.9-38-6.1-40.5-47.5-47.2-78.3 0 0-1.2-8.4 3.3-8.4 3.6 0 46.9-4.6 66.5 1.4m15.5-160.7a94 94 0 0 0-79 0l-1.7 1c-32.7 19.6-48.8 55.1-55.3 90.7-6 59.4 3.8 118.5 51.4 155.8 24 17.8 60.2 22 87 8 22.5-14 36.5-40 40.8-66.7 2.6-16 7.8-48-11.4-48-16 0-109-1-113-1s-4.3-3.5-4.3-3.5c-3.4-36.5.6-76.7 25.8-103.7 14-16 38.1-15.4 57.1-10.6 18 4.3 28.5 24 37 39.6l1 2.2c2.2 3.2 9.5 1.4 10-2.6l-.2-2.6c-2.6-24.9-23-46.2-43.2-57.6zm462.2 1.3c-40.1 116.2-138.8 235.7-251.5 283a642.3 642.3 0 0 1-142.8 48.5L2115 740c-103 20.1-206.7 37.6-301.8 77-48.5 24-96.5 70.8-91.8 131.8 13.1 46.5 6.8 102-28.3 137-26.6 29.3-58.5 45-89 63.6l-160.6 82c-26.5 15.2-53 31-78.7 48l174.4 143.5c43 29.2 107.4 23.6 147.5-7.8l962.5-811.3 271.5-226.3zM2118.6 602c-1.6-3.8-72.7-229.9-72.7-229.9-1.5-4.1-4-5-6.6-4.3 0 0-2.4.2-4.2 4-.6 1.2-1.7 4.7-1.7 4.7l-74.8 237.8c-4.1 6.5-21.6 1-15.1 13.7 1.6 3.3 4.3 2.7 4.3 2.7 28.2-4.3 55.9 1.8 83.7-.3 5-.4 4.4-8.5 2.8-9.2-8.6-4-26.8-3.5-26.3-9.5l.5-2c12.7-49.8 27.2-99.2 42.8-148.3.8-2.7 3.7-5.1 5.5-3l1.7 3c16.2 44.2 27.6 90.8 41.4 136 1.9 7.8-1.5 14.4-7.8 17-7 2.3-16.3 1.2-22 5.7-.9.6-1.7 1.5-1.8 2.5-.9 5.1 2.5 10 6.8 9.3 19.2-3.1 41.2-1 60.3-1.3h3c2.6-.4 3.4-5.4 1.2-8.5-3.2-4.6-8.7-2.4-12.3-5.5 0 0-3.5-1.9-8.7-14.6m-187 77.3a24 24 0 0 0-21.8-7.5c-7 3.4-13.6 9.4-15.9 17-3 10.8-3.1 24.6 3.4 33.5a27.5 27.5 0 0 0 18.2 11.3c8.4-.3 16.5-5.6 20.2-13.7 6.7-12.5 4-29.8-4-40.6m-336.9-301.4c-26-1.4-54.8-1.7-79.7-.8 2.8 15.4-29.5 8-29.5 24l-2.3 181.9c0 20-15.1 53-59.7 53-15-.6-50-6.4-59.7-35.6l-.3 35.7c0 4.2-7 6-9.9 3-16.7-17.7-39.6-24.2-59.6-36-1-.5-2.3-1.3-2.3-2.8 0-13.2 24.7-4 24.7-16.4l-.3-181.7c-2.8-17.7-30.7-4.5-28-24l-41-.4c20.2 11.4 40.6 32.7 43.2 57.6l.2 2.6c-.4 4-7.8 5.8-9.9 2.6l-1.1-2.2c-8.5-15.7-19-35.3-37-39.6-19-4.8-43-5.4-57.1 10.6-25.1 27-29.1 67.2-25.8 103.7a4 4 0 0 0 4.4 3.5c4 0 97 1 112.9 1 19.3 0 14 32 11.5 48-4.4 26.7-18.4 52.8-40.8 66.8-26.9 13.9-63 9.7-87-8.1-47.7-37.3-57.5-96.4-51.5-155.8 6.6-35.6 22.6-71 55.3-90.7l-105.4-1c17.9 11.6 37.7 31 42.4 54.9.3 2.4.9 5.5.3 7.2-1.4 4-5.8 5.4-8.8 1.9-1.7-2-2.9-4.4-4.2-6.7-8.2-13.7-15.7-29.9-31.7-34.3-17.9-6.3-41.7-5.8-57.1 6-27.3 27.7-32.8 67.6-29.8 106.3 0 0-.1 3.9 4.4 3.9 3.2 0 102.8 1.8 113.6 1.8 14.6 0 14.3 26.5 13.4 38-2.4 29.2-13.7 56.3-38.4 74-19.8 13-50.2 14.2-72 4.8-52.6-21.5-71.5-80.4-73.6-134.9 1.5-47.1 15.8-95.3 57.4-121.7l-86.4-.8c1.1 11.3-21.1 8-29 11.5 0 0-10.6 2.3-12.2 14.5-.2 1.5-.4 7-.4 7s-2.5 92.3 0 137.6c2.8 16.6 6 36.3 17.6 48 1.5 1.5 4.7 5.5 9 5.5 16 0 10.7-19.2 16.3-29 6-10.5 17.3-10.7 25.3-8.2 13.3 4.2 19.2 22 19.1 37-.1 14.2-8 29.1-21.5 34-34.3 12-70.6-43.3-70.6-43.3s-2.3-3.4-2.5-4.6c-.9 17.3 1 35.7-2 51.5-.2.3-1 2.3-2.7 2.3-2 0-3.1-1.7-3.3-2-18.1-18.2-38.9-27-60.6-36l-2.1-1.2c-3.2-1.8-2.5-5.8-.7-7.6.8-.8 2.6-1.5 3.7-2 10.2-3.4 22-2 24.5-10 .5-1.6.2-3.4.2-5.1 2.4-57.2 1.2-117.2-.4-175.1V400c-.7-10.9-19.5-11.6-29.2-15.7-4.8-2.5-4-6.5-4-6.5-19.4-.1-39.5-1.1-58.9.3 15.7 7.4 42.2 17.5 42.2 45.1l1.6 98.9c0 16.2 26.7 5.7 23.6 23 0 0-1.4 3.8-5.2 3.8-7.7.1-67 1.3-98.8-1.4l-3.2-.3c-3.4-1-3.8-8.9-1.8-10.3l1.5-1c10.4-6.7 31.2-.9 31.2-13l-.2-114.6c-1.3-10-9-18.1-18-21.3-20.5-6-40.3.4-54.7 15.2-39.9 42.2-40.9 126.1-40.9 161.5 0 35.3 2.1 125.6 57.7 154.2 12.8 6.6 36.1 6.9 48.3-5 21.5-20.2 26.8-47.6 40.3-71.2 1.1-2 1.2-2.7 2.7-4.4 3.8-4.3 11.4 1.2 11 6l-1.4 74.8c0 8.3-34.8 21.3-61.6 21.3-55 0-93.1-20.8-122.4-64.4-39.8-56.7-41.6-143.4-19.5-209.1 12.4-35.6 41.2-72.9 75.4-88.7L2.7 377l1125.8 947.4c40.7 32.1 106.5 38.5 151 10.5 66-53.8 131.5-108.4 195.3-166.9 42.9-46.8 78.1-107.8 56-175-19-84.6-102.7-144-83.2-242.8 6.6-51.6 52.6-82.3 86.2-118.8 53.3-70 72.3-159.6 61-253.6m-157.7 21.5c0-12.3-29.2-4.4-25.4-21.3l-20.9-1c.6 16.2-28.4 5.3-28.4 25.5l-.6 154.3c0 28.4 17.3 51.1 35.9 51.1 35 0 41.3-27.1 41.3-46.1zm-208.6 138c-19.7-5.9-63-1.3-66.6-1.3-4.5 0-3.3 8.4-3.3 8.4 6.7 30.8 9.2 72.2 47.2 78.3 10.3 1.2 19-.3 25.7-7.9 13.2-14.6 17-38 13-57.7-2.1-10-8-16.6-16-19.7m727.7-162.5c-47.6 5.8-140.8.2-143.7.3-5.1.1-9 8.3-9 8.3-24.2 52.3-44.4 107.4-70 158.5-5 9.5-16.4 6-24.2 5.2 0 0-6.6-.2-6.6-8.2l.3-124.2c0-8.8 5.6-16 12.6-21 9.6-6.4 29.5 1.7 29.5-14.7 0-3.4-3.2-4.5-5-4.5-42.4 2.6-74.4 1.5-117.6 0-3.3.7-6 2.4-6 6.6a8 8 0 0 0 2.2 5c8 9 29 .4 31.1 18.5l1 42.6.8 246.5c0 13-3.7 16-8.2 17.6-8.5 3.1-25.6.1-25.6 9 0 4.3 2 9.8 7.2 9.2 66.9-8 114.6 9 166.9-3.8a78.4 78.4 0 0 0 56.5-54.7c8-27.8 4-55.5-8.2-77.5-17.7-23.6-42.5-33.4-68-40.1 10.2-3 21.6-10.6 25.7-22l59-133.7c5.3-12.6 30.5-6.7 32.4 4.1 2 10.9 1.2 118.8 1.2 177.8 0 11-5 14-9.7 16.2-6.2 2.6-18.7 2.8-18.7 8.2 0 5.5 10.2 7 15.6 9.4 19 6 36.5 12.6 52.7 25.6 1.5 1.2 4 1.2 5.2-1.3 1-1.9.9-5.4.9-9.9l-.7-224c1.5-13.6 13.2-13.5 22.8-16 3-.8 7.8-.9 9.2-4.3 3-6.9-3.8-9.3-11.6-8.7m-249.4 191.8c48.2 0 68.8 6.8 78.2 24.5 12.2 23 13.7 69.5-2.7 96.6a43.4 43.4 0 0 1-40.4 23.7c-19.6 0-34.3-5.3-35.1-12.3l-.3-2.5c-3.3-40.9-1.9-84.8-3-125.5 0 0-.2-4.5 3.3-4.5m-667.4-29.3c-19.7-6-63-1.4-66.6-1.4-4.4 0-3.2 8.4-3.2 8.4 6.6 30.8 9.1 72.2 47.1 78.3 10.3 1.2 19-.3 25.7-7.9 13.2-14.6 17-38 13-57.7-2.1-10-8-16.6-16-19.7m1114-336h96.4v-23.7h-71.7v-59h67.6V95.3h-67.6V27.4h74.8V3.8h-99.5zM836 73C834 35 820.2 0 779.3 0c-53 0-59.7 53.7-59.7 102.6 0 49 8.2 102.6 59.7 102.6 38.1 0 54-23.2 55-61.8l-25.7-1.2c-.5 23.2-7 41-29.3 41-29.7 0-34-35-34-80.6 0-45.7 4.3-80.7 34-80.7 26.1 0 30 26 30.8 50.1zm249.2 29.5c0-49-8.3-102.6-59.8-102.6-51.6 0-59.9 53.7-59.9 102.6 0 49 8.3 102.6 59.9 102.6 51.5 0 59.8-53.7 59.8-102.6m-23.5 0c0 44.6-3.8 82.9-36.3 82.9s-36.4-38.3-36.4-82.9c0-44.6 3.9-83 36.4-83s36.3 38.4 36.3 83m163.2 98.8h24.7v-174h74V3.8h-98.7zm222.5 0h24.7v-174h74V3.8h-98.7zm223.2 0h96.5v-23.7h-71.7v-59h67.6V95.3h-67.6V27.4h74.7V3.8h-99.5zm317.5-56.5c-1 21.5-8 38.3-29.3 38.3-29.7 0-34-35-34-80.6 0-45.7 4.3-80.7 34-80.7 29.4 0 32.2 37.2 32.3 63.7h-36v22h58.7V3.8h-19v21.7A42.5 42.5 0 0 0 1955.8 0c-48.7 0-57 50.4-57 102.6 0 49 8.3 102.6 59.8 102.6 53.5 0 54.8-49.1 55-59.1l-25.7-1.2" fill="#2c882b"/></g></svg>